<?xml version="1.0" encoding="UTF-8" standalone="no"?>
<svg
   height="24"
   viewBox="0 -960 960 960"
   width="24"
   version="1.1"
   id="svg4"
   sodipodi:docname="expand.svg"
   inkscape:version="1.1.2 (b8e25be833, 2022-02-05)"
   xmlns:inkscape="http://www.inkscape.org/namespaces/inkscape"
   xmlns:sodipodi="http://sodipodi.sourceforge.net/DTD/sodipodi-0.dtd"
   xmlns="http://www.w3.org/2000/svg"
   xmlns:svg="http://www.w3.org/2000/svg">
  <defs
     id="defs8" />
  <sodipodi:namedview
     id="namedview6"
     pagecolor="#505050"
     bordercolor="#eeeeee"
     borderopacity="1"
     inkscape:pageshadow="0"
     inkscape:pageopacity="0"
     inkscape:pagecheckerboard="0"
     showgrid="false"
     inkscape:zoom="14.979167"
     inkscape:cx="8.6453406"
     inkscape:cy="12.216968"
     inkscape:window-width="1920"
     inkscape:window-height="1017"
     inkscape:window-x="-8"
     inkscape:window-y="-8"
     inkscape:window-maximized="1"
     inkscape:current-layer="svg4" />
  <path
     style="fill:#ffffff;stroke-width:1.16305;stroke-opacity:0.890196"
     d="m 779.19072,-572.63876 c -69.53411,69.82981 -138.90003,139.83152 -208.29769,209.80072 -83.84397,-84.04853 -166.44978,-169.43002 -251.54696,-252.15442 -10.19406,5.25446 -17.79746,16.67543 -26.82129,24.27556 -17.05188,17.05884 -33.89657,34.33078 -50.85298,51.48782 14.62845,18.50178 34.00624,35.00887 50.46237,52.74302 92.65619,93.70472 184.76691,187.97681 278.06193,281.02027 11.52261,-7.50541 20.67592,-20.46532 31.3487,-29.83936 99.78032,-100.52583 199.0793,-201.55107 298.5802,-302.36562 -14.78253,-18.64509 -34.28179,-35.30912 -50.89906,-53.18362 -9.03122,-8.03041 -16.77213,-19.20912 -26.56795,-25.37386 -14.48907,14.52983 -28.97814,29.05966 -43.46727,43.58949 z"
     id="path899" />
  <path
     style="fill:#ebf3e8;stroke-width:0.0421373;stroke-opacity:0.890196"
     d="M 7.036987,9.5613263 C 6.7428698,9.8994007 6.3341999,10.187753 6.1429067,10.593359 c 2.647622,2.726452 5.3005083,5.453278 8.0399423,8.088708 0.183147,0.236996 0.349156,-0.213055 0.507606,-0.278512 2.599773,-2.594541 5.202612,-5.189743 7.7244,-7.859484 C 21.901327,9.8499941 21.205261,9.2707209 20.613656,8.6312585 18.478401,10.698549 16.37911,12.85314 14.257823,14.954103 12.159908,12.853106 10.084362,10.698789 7.9724007,8.6311281 7.6605961,8.9411942 7.3487916,9.2512602 7.036987,9.5613263 Z"
     id="path1019"
     transform="matrix(40,0,0,40,0,-960)" />
</svg>
