<?xml version="1.0" encoding="UTF-8" standalone="no"?>
<svg
   height="100%"
   style="fill-rule:evenodd;clip-rule:evenodd;stroke-linejoin:round;stroke-miterlimit:2;"
   version="1.1"
   viewBox="0 0 512 512"
   width="100%"
   xml:space="preserve"
   id="svg4"
   sodipodi:docname="linkedin.svg"
   inkscape:version="1.1.2 (b8e25be833, 2022-02-05)"
   xmlns:inkscape="http://www.inkscape.org/namespaces/inkscape"
   xmlns:sodipodi="http://sodipodi.sourceforge.net/DTD/sodipodi-0.dtd"
   xmlns="http://www.w3.org/2000/svg"
   xmlns:svg="http://www.w3.org/2000/svg"><defs
     id="defs8" /><sodipodi:namedview
     id="namedview6"
     pagecolor="#505050"
     bordercolor="#eeeeee"
     borderopacity="1"
     inkscape:pageshadow="0"
     inkscape:pageopacity="0"
     inkscape:pagecheckerboard="0"
     showgrid="false"
     inkscape:zoom="0.99298785"
     inkscape:cx="140.4851"
     inkscape:cy="272.91371"
     inkscape:window-width="1920"
     inkscape:window-height="1017"
     inkscape:window-x="-8"
     inkscape:window-y="-8"
     inkscape:window-maximized="1"
     inkscape:current-layer="svg4" /><path
     style="fill:#ffffff;stroke-width:0.449464;stroke-opacity:0.890196"
     d="M 138.59249,0.10431156 C 110.74525,0.34882638 82.861097,-0.22189317 55.037552,0.82336579 26.809736,3.9325952 1.8847201,28.62091 0.86369956,57.376913 -0.01665559,155.62533 0.63627543,253.88186 0.57942962,352.13347 c 0.037731,36.08161 0.0754776,72.16322 0.113199,108.24483 4.55807278,19.10707 16.87678938,36.73873 34.91098738,45.22114 10.292807,5.35268 22.016269,6.3844 33.425514,5.86911 123.2699,0.41279 246.54282,0.40524 369.81232,-0.0833 11.29179,-0.43525 23.19211,1.08446 33.65646,-4.19332 18.83714,-7.3385 33.00316,-24.2972 37.87013,-43.80358 2.09631,-7.3797 0.3857,-15.33961 0.93933,-22.95442 0,-129.60408 0,-259.20816 0,-388.812243 C 507.1906,34.81228 497.61402,18.820817 482.43533,9.877608 474.48933,5.1951943 465.60196,1.4467283 456.45619,0.33433821 350.50164,0.25227835 244.54709,0.03478588 138.59249,0.10431156 Z M 126.38943,88.823369 c 17.51846,-0.168162 34.62459,12.498411 37.97079,30.008341 4.88689,17.82599 -5.36422,38.22541 -22.83032,44.53825 -16.9805,6.41272 -38.94675,4.48999 -51.218804,-10.09724 C 76.91625,138.36556 77.767132,113.04162 92.930457,99.649513 101.69872,90.845598 114.35774,88.229136 126.38943,88.823369 Z M 347.47288,192.3477 c 26.36766,-0.36622 53.07131,12.54662 67.06976,35.26585 13.11414,20.43933 17.02819,45.32243 16.37308,69.24038 0.39858,42.27414 0.18673,84.55084 0.24145,126.82618 -25.1479,0 -50.29579,0 -75.44368,0 -0.2621,-43.29573 0.58646,-86.61158 -0.63385,-129.89373 -0.34067,-14.81174 -6.30909,-31.38966 -20.15196,-38.56107 -14.98686,-6.25303 -34.6155,-3.76882 -45.51878,8.99027 -7.07339,7.14109 -11.94794,16.69269 -11.5288,26.94621 -1.05939,43.51362 -0.28333,87.05492 -0.53621,130.57952 -0.29652,4.14837 -7.9715,0.91694 -11.39396,1.9388 -21.35002,0 -42.70005,0 -64.05007,0 0,-75.46963 0,-150.93927 0,-226.4089 25.13862,0 50.27724,0 75.41585,0 0.15224,10.25336 0.20874,20.57823 0.42004,30.78721 9.4487,-14.44122 23.02526,-26.72915 39.74826,-31.8943 9.63174,-3.35913 19.86591,-4.00675 29.98887,-3.81642 z m -224.63561,4.92351 c 12.57395,0 25.14789,0 37.72184,0 0,75.46963 0,150.93927 0,226.4089 -25.14789,0 -50.29578,0 -75.443675,0 0,-75.46963 0,-150.93927 0,-226.4089 12.573951,0 25.147895,0 37.721835,0 z"
     id="path862" /><path
     style="fill:#ebf3e8;stroke-width:0.449464;stroke-opacity:0.890196"
     d="M 254.93185,0.86091796 C 187.28048,0.92628469 119.62911,0.99166581 51.977747,1.0570236 30.452538,6.1652637 10.757049,21.560324 3.9537166,43.074084 0.03141186,54.89682 2.0922218,67.595732 1.3607716,79.814839 0.84822064,206.82234 1.1618517,333.83175 1.0486787,460.84005 6.1186942,479.58957 18.27246,496.96528 36.20306,505.29068 c 13.489622,7.45419 29.2944,4.97137 44.02494,5.59894 113.991,0.3272 227.98414,0.20465 341.97506,-0.0983 15.30075,-0.51322 30.81727,0.56916 45.95689,-2.0139 20.15927,-7.51286 37.10849,-24.73872 41.82197,-46.04173 1.4481,-26.56375 0.63119,-53.21579 0.93468,-79.81501 0.0677,-110.58691 0.0205,-221.17386 0.0347,-331.760786 C 506.05487,33.193894 494.88345,16.28745 477.85814,7.8581361 470.68088,4.4701423 462.98962,1.141159 455.03199,0.6675646 388.33194,0.73201573 321.6319,0.79646684 254.93185,0.86091796 Z M 125.98053,88.707931 c 18.86866,-0.873078 37.35065,14.113079 39.15577,33.150209 2.00581,12.43459 -2.03782,25.68287 -11.50626,34.16272 -10.60064,10.327 -26.77542,12.24471 -40.84562,10.27539 -17.738976,-3.08672 -32.767949,-19.42457 -31.887829,-37.84282 -1.696315,-20.45448 16.475846,-39.276646 36.713819,-39.56442 2.7864,-0.167991 5.57913,-0.217781 8.37012,-0.181079 z M 347.36718,192.29902 c 28.2757,-0.98453 56.69393,14.38309 70.11265,39.5007 9.28482,16.85899 13.80229,36.22153 13.14233,55.45196 0.40732,45.47479 0.38265,90.95241 0.59063,136.42843 -25.09457,0 -50.18915,0 -75.28372,0 -1.60005,-33.17692 0.29073,-66.39451 -0.76953,-99.5875 -0.70765,-14.23928 0.43766,-28.70981 -2.1314,-42.78115 -3.32867,-12.97633 -12.47935,-26.17243 -26.65521,-28.17986 -15.0073,-3.14766 -31.54888,2.92816 -40.22197,15.75102 -5.801,6.71904 -8.06199,15.53198 -7.81669,24.26561 -1.19218,43.10234 -0.0147,86.25454 -1.56654,129.34412 -0.0865,3.25502 -5.08835,0.98105 -6.89012,1.64117 -22.65835,-0.26615 -45.31843,-0.32592 -67.97775,-0.46732 0,-75.465 0,-150.93 0,-226.39499 25.08438,0 50.16876,0 75.25313,0 1.41699,9.69944 0.67893,19.6055 0.93741,29.32962 12.64901,-18.58499 33.04721,-32.93548 56.00835,-33.94853 4.41387,-0.33658 8.84368,-0.39241 13.26843,-0.35328 z m -224.52991,4.97219 c 12.57395,0 25.14789,0 37.72184,0 0,75.46963 0,150.93927 0,226.4089 -25.14789,0 -50.29578,0 -75.443675,0 0,-75.46963 0,-150.93927 0,-226.4089 12.573951,0 25.147895,0 37.721835,0 z"
     id="path936" /></svg>
