<?xml version="1.0" encoding="UTF-8" standalone="no"?>
<svg
   height="24"
   viewBox="0 -960 960 960"
   width="24"
   version="1.1"
   id="svg4"
   sodipodi:docname="open_new.svg"
   inkscape:version="1.1.2 (b8e25be833, 2022-02-05)"
   xmlns:inkscape="http://www.inkscape.org/namespaces/inkscape"
   xmlns:sodipodi="http://sodipodi.sourceforge.net/DTD/sodipodi-0.dtd"
   xmlns="http://www.w3.org/2000/svg"
   xmlns:svg="http://www.w3.org/2000/svg">
  <defs
     id="defs8" />
  <sodipodi:namedview
     id="namedview6"
     pagecolor="#505050"
     bordercolor="#eeeeee"
     borderopacity="1"
     inkscape:pageshadow="0"
     inkscape:pageopacity="0"
     inkscape:pagecheckerboard="0"
     showgrid="false"
     inkscape:zoom="32"
     inkscape:cx="12.234375"
     inkscape:cy="11.90625"
     inkscape:window-width="1920"
     inkscape:window-height="1017"
     inkscape:window-x="-8"
     inkscape:window-y="-8"
     inkscape:window-maximized="1"
     inkscape:current-layer="svg4" />
  <path
     style="fill:#ffffff;stroke-width:0.0210686;stroke-opacity:0.890196"
     d="M 8.3198236,2.9919159 C 7.0824103,3.0064255 5.8432683,2.9746251 4.6069845,3.0323366 3.8361232,3.1882796 3.1585653,3.8422712 3.0367046,4.6290203 2.979451,6.5229804 3.012511,8.4188745 3.0011028,10.313608 c 0.00853,2.965591 -0.02053,5.931657 0.026409,8.896927 0.016098,0.660256 0.4780124,1.248348 1.0397905,1.56024 0.3546321,0.207782 0.771042,0.254075 1.1745433,0.226428 4.5193562,0.006 9.0388674,0.01637 13.5581444,-0.01142 0.363142,-0.0064 0.747603,0.01738 1.069599,-0.183715 0.673697,-0.328414 1.169157,-1.051799 1.114933,-1.81586 0.0282,-2.323016 0.0087,-4.646368 0.01463,-6.969519 -0.429648,-0.04656 -0.895009,-0.0069 -1.338512,-0.02002 -0.220543,0.01415 -0.464323,-0.0278 -0.670919,0.02002 0,2.329907 0,4.659814 0,6.989721 -4.659814,0 -9.3196284,0 -13.9794424,0 0,-4.670941 0,-9.3418814 0,-14.0128218 2.329907,0 4.659814,0 6.9897214,0 0.04657,-0.4299712 0.0069,-0.8956666 0.02002,-1.3394906 -0.01415,-0.2208718 0.02782,-0.4650411 -0.02008,-0.6718968 -1.226704,0.00324 -2.453408,0.00648 -3.6801118,0.00971 z"
     id="path899"
     transform="matrix(40,0,0,40,0,-960)" />
  <path
     style="fill:#ffffff;stroke-width:0.0210686;stroke-opacity:0.890196"
     d="m 13.982767,3.0041725 c 0,0.6564673 0,1.3129346 0,1.9694019 0.424036,0.046679 0.883972,0.00669 1.321823,0.020015 0.754042,0.00208 1.509935,-0.00527 2.262778,0.019819 -3.068226,3.1071705 -6.168216,6.1840526 -9.2530208,9.2753176 0.2626192,0.327768 0.6093603,0.621327 0.9063593,0.934367 0.1658698,0.139519 0.304817,0.346219 0.4890032,0.447043 3.0985043,-3.06155 6.1582103,-6.1632033 9.2601923,-9.2208139 0.03366,1.1755987 0.01453,2.3543766 0.01982,3.5312064 0.429648,0.046561 0.895009,0.0069 1.338513,0.020015 0.220542,-0.01415 0.464322,0.0278 0.670918,-0.020015 0,-2.3254521 0,-4.650904 0,-6.976356 -0.424036,-0.046679 -0.883971,-0.00669 -1.321822,-0.020015 -1.891516,0 -3.783032,0 -5.674548,0 z"
     id="path938"
     transform="matrix(40,0,0,40,0,-960)" />
  <path
     style="fill:#ebf3e8;stroke-width:0.0197244;stroke-opacity:0.890196"
     d="M 8.3156128,2.9876709 C 7.0870828,3.0037504 5.856871,2.9745047 4.6294556,3.03125 3.8741806,3.176393 3.2211932,3.7995239 3.0509644,4.5518799 c -0.054657,2.4509817 -0.035285,4.9033023 -0.044191,7.3548581 0.00761,2.509481 -0.011801,5.019658 0.0412,7.528622 0.145766,0.68113 0.7002056,1.24435 1.3482063,1.475223 0.4524406,0.141004 0.9361703,0.05545 1.4018534,0.08626 4.3417129,0.01773 8.6838869,0.03484 13.0253469,-0.02434 0.408041,-0.01425 0.857631,0.01314 1.196885,-0.25748 0.420116,-0.282344 0.773946,-0.682004 0.915719,-1.176435 0.112183,-0.303524 0.02691,-0.641996 0.05473,-0.960404 0.0052,-2.179322 0.01042,-4.358644 0.01564,-6.537966 -0.356079,-0.09228 -0.754499,-0.04199 -1.127624,-0.05903 -0.288403,0.01401 -0.584967,-0.02498 -0.868287,0.03797 -0.03461,0.652638 -0.0049,1.327076 -0.01483,1.988098 0,1.667989 -10e-7,3.335978 0,5.003968 -4.663737,-10e-7 -9.3274739,0 -13.991211,0 0,-4.674154 0,-9.3483079 0,-14.0224615 2.3238324,0 4.6476646,0 6.971497,0 0.09508,-0.338894 0.04032,-0.7215505 0.05884,-1.0779419 -0.015,-0.3068186 0.02634,-0.6223418 -0.0404,-0.9237671 -0.642216,-0.032087 -1.306232,5.41e-4 -1.956831,-0.00666 -0.5739607,0.00242 -1.1479207,0.00484 -1.7218807,0.00727 z"
     id="path859"
     transform="matrix(40,0,0,40,0,-960)" />
  <path
     style="fill:#ebf3e8;stroke-width:0.0197244;stroke-opacity:0.890196"
     d="m 13.979981,3.0154419 c -0.0055,0.6483561 -0.01099,1.2967122 -0.01648,1.9450684 0.364671,0.049521 0.766011,0.012577 1.144804,0.028801 0.806939,0.00845 1.615318,0.00617 2.421175,0.036934 -3.032777,3.1135058 -6.145055,6.1504037 -9.1853028,9.2570797 0.055463,0.149381 0.2306633,0.254657 0.3308903,0.384383 0.332944,0.329763 0.6512603,0.680622 1.0142636,0.976457 0.3689399,-0.309093 0.7015459,-0.678486 1.0541589,-1.012652 2.746157,-2.705129 5.456333,-5.4554859 8.214335,-8.1429262 0.0365,1.1570203 0.03219,2.3165537 0.04675,3.4746093 0.425111,0.082238 0.88701,0.043541 1.327512,0.052912 0.221863,-0.01533 0.467293,0.02295 0.67255,-0.052973 -0.0053,-2.3158569 -0.01058,-4.6317138 -0.01587,-6.9475707 -0.365195,-0.046519 -0.76608,-0.00669 -1.145019,-0.019958 -1.947917,0 -3.895833,0 -5.84375,0 z"
     id="path898"
     transform="matrix(40,0,0,40,0,-960)" />
</svg>
