<?xml version="1.0" encoding="UTF-8" standalone="no"?>
<svg
   enable-background="new 0 0 32 32"
   height="32px"
   id="Layer_1"
   version="1.0"
   viewBox="0 0 32 32"
   width="32px"
   xml:space="preserve"
   sodipodi:docname="github.svg"
   inkscape:version="1.1.2 (b8e25be833, 2022-02-05)"
   xmlns:inkscape="http://www.inkscape.org/namespaces/inkscape"
   xmlns:sodipodi="http://sodipodi.sourceforge.net/DTD/sodipodi-0.dtd"
   xmlns="http://www.w3.org/2000/svg"
   xmlns:svg="http://www.w3.org/2000/svg"><defs
     id="defs19" /><sodipodi:namedview
     id="namedview17"
     pagecolor="#505050"
     bordercolor="#eeeeee"
     borderopacity="1"
     inkscape:pageshadow="0"
     inkscape:pageopacity="0"
     inkscape:pagecheckerboard="0"
     showgrid="false"
     inkscape:zoom="16"
     inkscape:cx="12.59375"
     inkscape:cy="20.25"
     inkscape:window-width="1920"
     inkscape:window-height="1017"
     inkscape:window-x="-8"
     inkscape:window-y="-8"
     inkscape:window-maximized="1"
     inkscape:current-layer="Layer_1" /><g
     id="g4" /><g
     id="g6" /><g
     id="g8" /><g
     id="g10" /><g
     id="g12" /><g
     id="g14" /><path
     style="fill:#ffffff;stroke-width:0.0280915;stroke-opacity:0.890196"
     d="M 15.784684,0.01234353 C 13.272801,0.00910077 10.772787,0.67599822 8.550765,1.8359701 4.6435761,3.8893309 1.6497952,7.6152924 0.53865133,11.892657 c -0.55129676,2.080709 -0.67132455,4.277116 -0.36714577,6.407065 0.54368536,3.762191 2.47061134,7.305505 5.35651714,9.783655 1.5838999,1.362942 3.4270669,2.450958 5.4225163,3.084477 0.423889,0.141696 1.022484,-0.101203 1.024687,-0.601355 0.02982,-0.957292 0.06232,-1.920295 0.0046,-2.87613 -0.14914,-0.06779 -0.37245,0.05612 -0.544332,0.05563 -1.05269,0.124153 -2.1766727,0.131648 -3.13499,-0.382995 C 7.4477067,26.950695 6.8403298,26.16197 6.5247288,25.283176 6.1376752,24.387477 5.521264,23.579305 4.6856158,23.060331 4.52049,22.895399 4.1955528,22.722949 4.265386,22.448192 c 0.2311699,-0.262166 0.6444238,-0.19448 0.9571453,-0.174374 1.0684996,0.16024 1.8443892,1.043368 2.3944616,1.909434 0.5408187,0.805033 1.4344265,1.428163 2.4317281,1.417676 0.676399,0.02247 1.390567,-0.06938 1.983094,-0.411342 0.16394,-0.367266 0.18727,-0.796643 0.382128,-1.158032 0.154956,-0.355053 0.384705,-0.671382 0.655598,-0.946975 -0.308816,-0.109682 -0.710066,-0.09822 -1.053163,-0.181277 C 10.725414,22.651974 9.411593,22.250582 8.3589185,21.433501 7.6370301,20.822332 6.9610009,20.12041 6.5921202,19.233667 5.8546564,17.628363 5.7034989,15.807453 5.8971545,14.067027 6.0754626,12.877248 6.6568127,11.784084 7.4308936,10.875435 7.2209571,10.217096 7.1095713,9.5272812 7.1494547,8.8326818 c 0.00842,-0.7495263 0.17907,-1.5007604 0.4743286,-2.1876019 0.4815408,-0.090747 0.9931549,0.025791 1.4633168,0.1530771 1.0369169,0.3248365 1.9853019,0.8785104 2.8892559,1.468533 1.166883,-0.2641968 2.344474,-0.5142645 3.54746,-0.4773969 1.18205,-0.016949 2.373302,-0.012606 3.528161,0.270165 0.329343,0.063262 0.65765,0.1456223 0.986531,0.2020162 1.167118,-0.7406225 2.411307,-1.5110507 3.82241,-1.6247393 0.21601,0.028546 0.552912,-0.1236192 0.599704,0.1743742 0.461452,1.2621098 0.586912,2.6888621 0.125102,3.9730568 -0.02446,0.200252 0.234351,0.342 0.327437,0.518164 0.886981,1.14678 1.351,2.610872 1.272687,4.059631 3.06e-4,1.633206 -0.322658,3.325845 -1.237986,4.706257 -0.924451,1.40486 -2.484294,2.254172 -4.088118,2.635538 -0.633303,0.160434 -1.277839,0.262834 -1.925982,0.339185 0.121963,0.224477 0.375081,0.424654 0.496262,0.680721 0.366754,0.61254 0.557357,1.320574 0.525671,2.034555 0.04562,1.637662 -0.0031,3.278895 0.08655,4.914593 0.06126,0.429775 0.562328,0.604978 0.941586,0.498522 0.954292,-0.237323 1.839414,-0.696595 2.707558,-1.14836 3.703917,-2.008395 6.55366,-5.544465 7.682125,-9.609011 0.393479,-1.373002 0.627563,-2.795729 0.600257,-4.226972 0.03149,-1.12521 -0.04801,-2.25249 -0.291161,-3.353108 C 30.757514,8.0303733 27.457956,3.7672834 23.058773,1.6368151 20.806419,0.54110491 18.294249,-0.05624244 15.784684,0.01234353 Z"
     id="path873" /></svg>
