<?xml version="1.0" encoding="UTF-8" standalone="no"?>
<svg
   height="24"
   viewBox="0 -960 960 960"
   width="24"
   version="1.1"
   id="svg4"
   sodipodi:docname="hamburger.svg"
   inkscape:version="1.1.2 (b8e25be833, 2022-02-05)"
   xmlns:inkscape="http://www.inkscape.org/namespaces/inkscape"
   xmlns:sodipodi="http://sodipodi.sourceforge.net/DTD/sodipodi-0.dtd"
   xmlns="http://www.w3.org/2000/svg"
   xmlns:svg="http://www.w3.org/2000/svg">
  <defs
     id="defs8" />
  <sodipodi:namedview
     id="namedview6"
     pagecolor="#505050"
     bordercolor="#eeeeee"
     borderopacity="1"
     inkscape:pageshadow="0"
     inkscape:pageopacity="0"
     inkscape:pagecheckerboard="0"
     showgrid="false"
     inkscape:zoom="16"
     inkscape:cx="-1.40625"
     inkscape:cy="3.9375"
     inkscape:window-width="1920"
     inkscape:window-height="1017"
     inkscape:window-x="-8"
     inkscape:window-y="-8"
     inkscape:window-maximized="1"
     inkscape:current-layer="svg4" />
  <path
     style="fill:#ffffff;stroke-width:0.0210686;stroke-opacity:0.890196"
     d="m 3.0008476,16.022253 c 0,0.656468 0,1.312935 0,1.969402 0.4240362,0.04668 0.8839716,0.0067 1.3218228,0.02001 5.5521557,0 11.1043116,0 16.6564676,0 0.04656,-0.429648 0.0069,-0.895009 0.02002,-1.338513 -0.01415,-0.220542 0.0278,-0.464322 -0.02002,-0.670918 -5.986092,0 -11.9721839,0 -17.9582757,0 z"
     id="path1362"
     transform="matrix(40,0,0,40,0,-960)" />
  <path
     style="fill:#ffffff;stroke-width:0.0210686;stroke-opacity:0.890196"
     d="m 3.0008476,11.015299 c 0,0.656467 0,1.312935 0,1.969402 0.4240362,0.04668 0.8839716,0.0067 1.3218228,0.02002 5.5521557,0 11.1043116,0 16.6564676,0 0.04656,-0.429648 0.0069,-0.89501 0.02002,-1.338513 -0.01415,-0.220542 0.0278,-0.464322 -0.02002,-0.670919 -5.986092,0 -11.9721839,0 -17.9582757,0 z"
     id="path1401"
     transform="matrix(40,0,0,40,0,-960)" />
  <path
     style="fill:#ffffff;stroke-width:0.0210686;stroke-opacity:0.890196"
     d="m 3.0008476,6.008345 c 0,0.6564673 0,1.3129346 0,1.969402 0.4240362,0.046678 0.8839716,0.00669 1.3218228,0.020015 5.5521557,0 11.1043116,0 16.6564676,0 0.04656,-0.429648 0.0069,-0.8950094 0.02002,-1.3385127 -0.01415,-0.2205423 0.0278,-0.4643224 -0.02002,-0.6709188 -5.986092,0 -11.9721839,0 -17.9582757,0 z"
     id="path1440"
     transform="matrix(40,0,0,40,0,-960)" />
</svg>
