<?xml version="1.0" encoding="UTF-8" standalone="no"?>
<svg
   height="100%"
   style="fill-rule:evenodd;clip-rule:evenodd;stroke-linejoin:round;stroke-miterlimit:2;"
   version="1.1"
   viewBox="0 0 512 512"
   width="100%"
   xml:space="preserve"
   id="svg4"
   sodipodi:docname="linkedin.svg"
   inkscape:version="1.1.2 (b8e25be833, 2022-02-05)"
   xmlns:inkscape="http://www.inkscape.org/namespaces/inkscape"
   xmlns:sodipodi="http://sodipodi.sourceforge.net/DTD/sodipodi-0.dtd"
   xmlns="http://www.w3.org/2000/svg"
   xmlns:svg="http://www.w3.org/2000/svg"><defs
     id="defs8" /><sodipodi:namedview
     id="namedview6"
     pagecolor="#505050"
     bordercolor="#eeeeee"
     borderopacity="1"
     inkscape:pageshadow="0"
     inkscape:pageopacity="0"
     inkscape:pagecheckerboard="0"
     showgrid="false"
     inkscape:zoom="0.70214844"
     inkscape:cx="205.79694"
     inkscape:cy="350.35327"
     inkscape:window-width="1920"
     inkscape:window-height="1017"
     inkscape:window-x="-8"
     inkscape:window-y="-8"
     inkscape:window-maximized="1"
     inkscape:current-layer="svg4" /><path
     style="fill:#ffffff;stroke-width:0.449464;stroke-opacity:0.890196"
     d="M 138.59249,0.10431156 C 110.74525,0.34882638 82.861097,-0.22189317 55.037552,0.82336579 26.809736,3.9325952 1.8847201,28.62091 0.86369956,57.376913 -0.01665559,155.62533 0.63627543,253.88186 0.57942962,352.13347 c 0.037731,36.08161 0.0754776,72.16322 0.113199,108.24483 4.55807278,19.10707 16.87678938,36.73873 34.91098738,45.22114 10.292807,5.35268 22.016269,6.3844 33.425514,5.86911 123.2699,0.41279 246.54282,0.40524 369.81232,-0.0833 11.29179,-0.43525 23.19211,1.08446 33.65646,-4.19332 18.83714,-7.3385 33.00316,-24.2972 37.87013,-43.80358 2.09631,-7.3797 0.3857,-15.33961 0.93933,-22.95442 0,-129.60408 0,-259.20816 0,-388.812243 C 507.1906,34.81228 497.61402,18.820817 482.43533,9.877608 474.48933,5.1951943 465.60196,1.4467283 456.45619,0.33433821 350.50164,0.25227835 244.54709,0.03478588 138.59249,0.10431156 Z M 126.38943,88.823369 c 17.51846,-0.168162 34.62459,12.498411 37.97079,30.008341 4.88689,17.82599 -5.36422,38.22541 -22.83032,44.53825 -16.9805,6.41272 -38.94675,4.48999 -51.218804,-10.09724 C 76.91625,138.36556 77.767132,113.04162 92.930457,99.649513 101.69872,90.845598 114.35774,88.229136 126.38943,88.823369 Z M 347.47288,192.3477 c 26.36766,-0.36622 53.07131,12.54662 67.06976,35.26585 13.11414,20.43933 17.02819,45.32243 16.37308,69.24038 0.39858,42.27414 0.18673,84.55084 0.24145,126.82618 -25.1479,0 -50.29579,0 -75.44368,0 -0.2621,-43.29573 0.58646,-86.61158 -0.63385,-129.89373 -0.34067,-14.81174 -6.30909,-31.38966 -20.15196,-38.56107 -14.98686,-6.25303 -34.6155,-3.76882 -45.51878,8.99027 -7.07339,7.14109 -11.94794,16.69269 -11.5288,26.94621 -1.05939,43.51362 -0.28333,87.05492 -0.53621,130.57952 -0.29652,4.14837 -7.9715,0.91694 -11.39396,1.9388 -21.35002,0 -42.70005,0 -64.05007,0 0,-75.46963 0,-150.93927 0,-226.4089 25.13862,0 50.27724,0 75.41585,0 0.15224,10.25336 0.20874,20.57823 0.42004,30.78721 9.4487,-14.44122 23.02526,-26.72915 39.74826,-31.8943 9.63174,-3.35913 19.86591,-4.00675 29.98887,-3.81642 z m -224.63561,4.92351 c 12.57395,0 25.14789,0 37.72184,0 0,75.46963 0,150.93927 0,226.4089 -25.14789,0 -50.29578,0 -75.443675,0 0,-75.46963 0,-150.93927 0,-226.4089 12.573951,0 25.147895,0 37.721835,0 z"
     id="path862" /></svg>
