<?xml version="1.0" encoding="UTF-8" standalone="no"?>
<svg
   height="24"
   viewBox="0 -960 960 960"
   width="24"
   version="1.1"
   id="svg4"
   sodipodi:docname="night.svg"
   inkscape:version="1.1.2 (b8e25be833, 2022-02-05)"
   xmlns:inkscape="http://www.inkscape.org/namespaces/inkscape"
   xmlns:sodipodi="http://sodipodi.sourceforge.net/DTD/sodipodi-0.dtd"
   xmlns="http://www.w3.org/2000/svg"
   xmlns:svg="http://www.w3.org/2000/svg">
  <defs
     id="defs8" />
  <sodipodi:namedview
     id="namedview6"
     pagecolor="#505050"
     bordercolor="#eeeeee"
     borderopacity="1"
     inkscape:pageshadow="0"
     inkscape:pageopacity="0"
     inkscape:pagecheckerboard="0"
     showgrid="false"
     inkscape:zoom="22.627417"
     inkscape:cx="13.191961"
     inkscape:cy="12.330174"
     inkscape:window-width="1920"
     inkscape:window-height="1017"
     inkscape:window-x="-8"
     inkscape:window-y="-8"
     inkscape:window-maximized="1"
     inkscape:current-layer="svg4" />
  <path
     d="M524-40q-84 0-157.5-32t-128-86.5Q184-213 152-286.5T120-444q0-146 93-257.5T450-840q-18 99 11 193.5T561-481q71 71 165.5 100T920-370q-26 144-138 237T524-40Zm0-80q88 0 163-44t118-121q-86-8-163-43.5T504-425q-61-61-97-138t-43-163q-77 43-120.5 118.5T200-444q0 135 94.5 229.5T524-120Zm-20-305Z"
     id="path2" />
  <path
     style="fill:#ffd42a;stroke-width:0.0210686;stroke-opacity:0.890196"
     d="M 10.872523,3.0722357 C 8.9716727,3.4933631 7.1765484,4.4585713 5.8478251,5.8916474 4.1414085,7.6043763 3.0964424,9.9666926 3.0107098,12.386115 c -0.1057297,1.908955 0.3463825,3.843144 1.3062548,5.498126 0.9927013,1.752831 2.5201581,3.193211 4.3325142,4.074303 1.9790782,1.023589 4.3060522,1.276839 6.4810202,0.84547 2.011527,-0.37868 3.869735,-1.446241 5.2687,-2.9327 1.390494,-1.360808 2.242826,-3.203444 2.604561,-5.099561 -0.240545,-0.02624 -0.518011,0.07904 -0.776494,0.08265 -0.771882,0.03147 -1.550514,0.05202 -2.321058,-0.01108 -2.247669,-0.287543 -4.406021,-1.32863 -5.967302,-2.984228 -1.614146,-1.610024 -2.596556,-3.8140063 -2.815123,-6.0754763 -0.04691,-0.9223305 -0.03383,-1.8572276 0.134758,-2.7670592 -0.09545,-0.05038 -0.272235,0.053092 -0.386018,0.055676 z M 9.0857311,5.8809545 c 0.07779,0.7014668 0.184613,1.4104498 0.3790424,2.0941944 0.9285455,3.5633021 3.6105205,6.6025451 7.0111045,8.0039451 1.156774,0.49128 2.392977,0.76687 3.638582,0.909988 -0.761608,1.310258 -1.859451,2.437857 -3.208671,3.14394 -1.111794,0.606119 -2.367024,0.938419 -3.633492,0.948318 C 11.506921,21.041021 9.7146629,20.517671 8.30667,19.437066 6.7091149,18.236031 5.4932184,16.4701 5.1509692,14.480985 4.8988681,13.013307 4.9802894,11.47106 5.5108441,10.070432 6.1583303,8.3116757 7.4264131,6.7711888 9.0857311,5.8809545 Z"
     id="path880"
     transform="matrix(40,0,0,40,0,-960)" />
</svg>
