<?xml version="1.0" encoding="UTF-8" standalone="no"?>
<svg
   height="24"
   viewBox="0 -960 960 960"
   width="24"
   version="1.1"
   id="svg4"
   sodipodi:docname="open_new.svg"
   inkscape:version="1.1.2 (b8e25be833, 2022-02-05)"
   xmlns:inkscape="http://www.inkscape.org/namespaces/inkscape"
   xmlns:sodipodi="http://sodipodi.sourceforge.net/DTD/sodipodi-0.dtd"
   xmlns="http://www.w3.org/2000/svg"
   xmlns:svg="http://www.w3.org/2000/svg">
  <defs
     id="defs8" />
  <sodipodi:namedview
     id="namedview6"
     pagecolor="#505050"
     bordercolor="#eeeeee"
     borderopacity="1"
     inkscape:pageshadow="0"
     inkscape:pageopacity="0"
     inkscape:pagecheckerboard="0"
     showgrid="false"
     inkscape:zoom="32"
     inkscape:cx="12.234375"
     inkscape:cy="11.90625"
     inkscape:window-width="1920"
     inkscape:window-height="1017"
     inkscape:window-x="-8"
     inkscape:window-y="-8"
     inkscape:window-maximized="1"
     inkscape:current-layer="svg4" />
  <path
     style="fill:#ffffff;stroke-width:0.0210686;stroke-opacity:0.890196"
     d="M 8.3198236,2.9919159 C 7.0824103,3.0064255 5.8432683,2.9746251 4.6069845,3.0323366 3.8361232,3.1882796 3.1585653,3.8422712 3.0367046,4.6290203 2.979451,6.5229804 3.012511,8.4188745 3.0011028,10.313608 c 0.00853,2.965591 -0.02053,5.931657 0.026409,8.896927 0.016098,0.660256 0.4780124,1.248348 1.0397905,1.56024 0.3546321,0.207782 0.771042,0.254075 1.1745433,0.226428 4.5193562,0.006 9.0388674,0.01637 13.5581444,-0.01142 0.363142,-0.0064 0.747603,0.01738 1.069599,-0.183715 0.673697,-0.328414 1.169157,-1.051799 1.114933,-1.81586 0.0282,-2.323016 0.0087,-4.646368 0.01463,-6.969519 -0.429648,-0.04656 -0.895009,-0.0069 -1.338512,-0.02002 -0.220543,0.01415 -0.464323,-0.0278 -0.670919,0.02002 0,2.329907 0,4.659814 0,6.989721 -4.659814,0 -9.3196284,0 -13.9794424,0 0,-4.670941 0,-9.3418814 0,-14.0128218 2.329907,0 4.659814,0 6.9897214,0 0.04657,-0.4299712 0.0069,-0.8956666 0.02002,-1.3394906 -0.01415,-0.2208718 0.02782,-0.4650411 -0.02008,-0.6718968 -1.226704,0.00324 -2.453408,0.00648 -3.6801118,0.00971 z"
     id="path899"
     transform="matrix(40,0,0,40,0,-960)" />
  <path
     style="fill:#ffffff;stroke-width:0.0210686;stroke-opacity:0.890196"
     d="m 13.982767,3.0041725 c 0,0.6564673 0,1.3129346 0,1.9694019 0.424036,0.046679 0.883972,0.00669 1.321823,0.020015 0.754042,0.00208 1.509935,-0.00527 2.262778,0.019819 -3.068226,3.1071705 -6.168216,6.1840526 -9.2530208,9.2753176 0.2626192,0.327768 0.6093603,0.621327 0.9063593,0.934367 0.1658698,0.139519 0.304817,0.346219 0.4890032,0.447043 3.0985043,-3.06155 6.1582103,-6.1632033 9.2601923,-9.2208139 0.03366,1.1755987 0.01453,2.3543766 0.01982,3.5312064 0.429648,0.046561 0.895009,0.0069 1.338513,0.020015 0.220542,-0.01415 0.464322,0.0278 0.670918,-0.020015 0,-2.3254521 0,-4.650904 0,-6.976356 -0.424036,-0.046679 -0.883971,-0.00669 -1.321822,-0.020015 -1.891516,0 -3.783032,0 -5.674548,0 z"
     id="path938"
     transform="matrix(40,0,0,40,0,-960)" />
</svg>
