<?xml version="1.0" encoding="UTF-8" standalone="no"?>
<svg
   height="24"
   viewBox="0 -960 960 960"
   width="24"
   version="1.1"
   id="svg4"
   sodipodi:docname="sun.svg"
   inkscape:version="1.1.2 (b8e25be833, 2022-02-05)"
   xmlns:inkscape="http://www.inkscape.org/namespaces/inkscape"
   xmlns:sodipodi="http://sodipodi.sourceforge.net/DTD/sodipodi-0.dtd"
   xmlns="http://www.w3.org/2000/svg"
   xmlns:svg="http://www.w3.org/2000/svg">
  <defs
     id="defs8" />
  <sodipodi:namedview
     id="namedview6"
     pagecolor="#505050"
     bordercolor="#eeeeee"
     borderopacity="1"
     inkscape:pageshadow="0"
     inkscape:pageopacity="0"
     inkscape:pagecheckerboard="0"
     showgrid="false"
     inkscape:zoom="16"
     inkscape:cx="7.65625"
     inkscape:cy="21.1875"
     inkscape:window-width="1920"
     inkscape:window-height="1017"
     inkscape:window-x="-8"
     inkscape:window-y="-8"
     inkscape:window-maximized="1"
     inkscape:current-layer="svg4" />
  <path
     style="fill:#ebf3e8;fill-opacity:1;stroke-width:0.842744;stroke-opacity:0.890196"
     d="m 165.1342,-841.46067 c -0.81196,212.77904 -0.90472,425.84487 -2.35224,638.44663 -25.75619,1.0224 -51.60538,1.402 -77.39917,2.0704 -1.82108,18.03076 -0.2688,37.43608 -0.78232,55.99964 0.58204,7.85364 -1.13444,16.65936 0.8006,23.95256 266.14742,0 532.29485,0 798.44229,0 1.8608,-17.11528 0.28,-35.65672 0.8008,-53.32668 -0.5632,-8.752 1.1004,-18.41128 -0.7824,-26.62552 -25.836,-0.6776 -51.7296,-1.0336 -77.52696,-2.0888 -1.192,-212.80712 -1.496,-425.61904 -2.2296,-638.42839 -17.41016,-1.86112 -36.2484,-0.2668 -54.20812,-0.798 -194.654,0 -389.30804,0 -583.96208,0 z m 559.0212,119.28808 c 0,13.37883 0,26.75765 0,40.13647 -26.75244,0 -53.50484,0 -80.25728,0 0.8312,-25.91312 0.656,-52.77538 2.3028,-78.1476 25.93828,-1.11724 51.9756,-1.43236 77.9546,-2.10708 0,13.37274 0,26.74548 0,40.11822 z m -319.64446,-39.7088 c 53.14066,0 106.2813,0 159.42194,0 0,26.61509 0,53.23019 0,79.84527 -106.28128,0 -212.56259,0 -318.84388,0 0,-26.61508 0,-53.23018 0,-79.84527 53.14064,0 106.28129,0 159.42194,0 z m 319.64446,199.93133 c 0,13.3771 0,26.75418 0,40.13126 -26.11772,-0.4644 -52.36016,0.268 -78.38748,-1.4136 -2.394,-25.43736 -0.808,-51.24388 0.216,-76.76546 26.01216,-1.05804 52.12,-1.39924 78.17104,-2.0706 0,13.37274 0,26.74548 0,40.11822 z m -319.64446,-39.7088 c 53.14066,0 106.2813,0 159.42194,0 0,26.61509 0,53.23018 0,79.84526 -106.28128,0 -212.56259,0 -318.84388,0 0,-26.61508 0,-53.23017 0,-79.84526 53.14064,0 106.28129,0 159.42194,0 z m 319.64446,280.04522 c 0,40.08172 0,80.1634 0,120.24512 -159.6888,0 -319.3776,0 -479.0664,0 0,-80.0226 0,-160.0452 0,-240.0678 106.28129,0 212.5626,0 318.84388,0 0,23.85344 0,47.70688 0,71.56032 -18.23436,16.28628 -32.52404,40.11752 -28.93288,65.376 0.818,19.55056 13.2946,37.22548 28.21312,49.08508 25.94192,20.5144 66.35008,18.19892 89.54968,-5.48048 22.68436,-20.31836 28.7338,-56.0406 13.8648,-82.61848 -5.71504,-10.78572 -14.31844,-19.6052 -22.73732,-28.28928 0.8604,-22.5242 0.602,-45.79092 2.3028,-67.9042 25.941,-1.1172 51.98092,-1.4464 77.96244,-2.1332 0,40.0756 0,80.15124 0,120.22688 z"
     id="path859" />
</svg>
